<svg xmlns="http://www.w3.org/2000/svg" width="771" height="891" viewBox="0 0 771 891"><rect width="100%" height="100%" fill="#f4f1ea"/><text x="40" y="24" font-family="Helvetica,Arial,sans-serif" font-size="14" fill="#202024">CAD layout (top-down, depot at bottom)</text><g stroke="#d6c4d4" stroke-width="16" stroke-linecap="round"><line x1="40.0" y1="851.5999999999999" x2="40.0" y2="160.0"/><line x1="138.8" y1="851.5999999999999" x2="138.8" y2="160.0"/><line x1="237.60000000000002" y1="851.5999999999999" x2="237.60000000000002" y2="160.0"/><line x1="336.4" y1="851.5999999999999" x2="336.4" y2="160.0"/><line x1="435.20000000000005" y1="851.5999999999999" x2="435.20000000000005" y2="160.0"/><line x1="534.0" y1="851.5999999999999" x2="534.0" y2="160.0"/><line x1="632.8" y1="851.5999999999999" x2="632.8" y2="160.0"/><line x1="731.5999999999999" y1="851.5999999999999" x2="731.5999999999999" y2="160.0"/><line x1="40.0" y1="851.5999999999999" x2="731.5999999999999" y2="851.5999999999999"/><line x1="40.0" y1="752.8" x2="731.5999999999999" y2="752.8"/><line x1="40.0" y1="653.9999999999999" x2="731.5999999999999" y2="653.9999999999999"/><line x1="40.0" y1="555.1999999999999" x2="731.5999999999999" y2="555.1999999999999"/><line x1="40.0" y1="456.3999999999999" x2="731.5999999999999" y2="456.3999999999999"/><line x1="40.0" y1="357.59999999999997" x2="731.5999999999999" y2="357.59999999999997"/><line x1="40.0" y1="258.79999999999995" x2="731.5999999999999" y2="258.79999999999995"/><line x1="40.0" y1="160.0" x2="731.5999999999999" y2="160.0"/><line x1="731.5999999999999" y1="160.0" x2="731.5999999999999" y2="40.0"/><line x1="491.59999999999997" y1="40.0" x2="731.5999999999999" y2="40.0"/></g><g stroke="#7a6678" stroke-width="1.5" stroke-dasharray="3 2"><line x1="40.0" y1="851.5999999999999" x2="40.0" y2="160.0"/><line x1="138.8" y1="851.5999999999999" x2="138.8" y2="160.0"/><line x1="237.60000000000002" y1="851.5999999999999" x2="237.60000000000002" y2="160.0"/><line x1="336.4" y1="851.5999999999999" x2="336.4" y2="160.0"/><line x1="435.20000000000005" y1="851.5999999999999" x2="435.20000000000005" y2="160.0"/><line x1="534.0" y1="851.5999999999999" x2="534.0" y2="160.0"/><line x1="632.8" y1="851.5999999999999" x2="632.8" y2="160.0"/><line x1="731.5999999999999" y1="851.5999999999999" x2="731.5999999999999" y2="160.0"/><line x1="40.0" y1="851.5999999999999" x2="731.5999999999999" y2="851.5999999999999"/><line x1="40.0" y1="752.8" x2="731.5999999999999" y2="752.8"/><line x1="40.0" y1="653.9999999999999" x2="731.5999999999999" y2="653.9999999999999"/><line x1="40.0" y1="555.1999999999999" x2="731.5999999999999" y2="555.1999999999999"/><line x1="40.0" y1="456.3999999999999" x2="731.5999999999999" y2="456.3999999999999"/><line x1="40.0" y1="357.59999999999997" x2="731.5999999999999" y2="357.59999999999997"/><line x1="40.0" y1="258.79999999999995" x2="731.5999999999999" y2="258.79999999999995"/><line x1="40.0" y1="160.0" x2="731.5999999999999" y2="160.0"/></g><g fill="#202024"><circle cx="40.0" cy="851.5999999999999" r="5"/><title>station 0 at (0.00, 0.00)</title><circle cx="138.8" cy="851.5999999999999" r="5"/><title>station 1 at (9.88, 0.00)</title><circle cx="237.60000000000002" cy="851.5999999999999" r="5"/><title>station 2 at (19.76, 0.00)</title><circle cx="336.4" cy="851.5999999999999" r="5"/><title>station 3 at (29.64, 0.00)</title><circle cx="435.20000000000005" cy="851.5999999999999" r="5"/><title>station 4 at (39.52, 0.00)</title><circle cx="534.0" cy="851.5999999999999" r="5"/><title>station 5 at (49.40, 0.00)</title><circle cx="632.8" cy="851.5999999999999" r="5"/><title>station 6 at (59.28, 0.00)</title><circle cx="731.5999999999999" cy="851.5999999999999" r="5"/><title>station 7 at (69.16, 0.00)</title><circle cx="40.0" cy="752.8" r="5"/><title>station 8 at (0.00, 9.88)</title><circle cx="138.8" cy="752.8" r="5"/><title>station 9 at (9.88, 9.88)</title><circle cx="237.60000000000002" cy="752.8" r="5"/><title>station 10 at (19.76, 9.88)</title><circle cx="336.4" cy="752.8" r="5"/><title>station 11 at (29.64, 9.88)</title><circle cx="435.20000000000005" cy="752.8" r="5"/><title>station 12 at (39.52, 9.88)</title><circle cx="534.0" cy="752.8" r="5"/><title>station 13 at (49.40, 9.88)</title><circle cx="632.8" cy="752.8" r="5"/><title>station 14 at (59.28, 9.88)</title><circle cx="731.5999999999999" cy="752.8" r="5"/><title>station 15 at (69.16, 9.88)</title><circle cx="40.0" cy="653.9999999999999" r="5"/><title>station 16 at (0.00, 19.76)</title><circle cx="138.8" cy="653.9999999999999" r="5"/><title>station 17 at (9.88, 19.76)</title><circle cx="237.60000000000002" cy="653.9999999999999" r="5"/><title>station 18 at (19.76, 19.76)</title><circle cx="336.4" cy="653.9999999999999" r="5"/><title>station 19 at (29.64, 19.76)</title><circle cx="435.20000000000005" cy="653.9999999999999" r="5"/><title>station 20 at (39.52, 19.76)</title><circle cx="534.0" cy="653.9999999999999" r="5"/><title>station 21 at (49.40, 19.76)</title><circle cx="632.8" cy="653.9999999999999" r="5"/><title>station 22 at (59.28, 19.76)</title><circle cx="731.5999999999999" cy="653.9999999999999" r="5"/><title>station 23 at (69.16, 19.76)</title><circle cx="40.0" cy="555.1999999999999" r="5"/><title>station 24 at (0.00, 29.64)</title><circle cx="138.8" cy="555.1999999999999" r="5"/><title>station 25 at (9.88, 29.64)</title><circle cx="237.60000000000002" cy="555.1999999999999" r="5"/><title>station 26 at (19.76, 29.64)</title><circle cx="336.4" cy="555.1999999999999" r="5"/><title>station 27 at (29.64, 29.64)</title><circle cx="435.20000000000005" cy="555.1999999999999" r="5"/><title>station 28 at (39.52, 29.64)</title><circle cx="534.0" cy="555.1999999999999" r="5"/><title>station 29 at (49.40, 29.64)</title><circle cx="632.8" cy="555.1999999999999" r="5"/><title>station 30 at (59.28, 29.64)</title><circle cx="731.5999999999999" cy="555.1999999999999" r="5"/><title>station 31 at (69.16, 29.64)</title><circle cx="40.0" cy="456.3999999999999" r="5"/><title>station 32 at (0.00, 39.52)</title><circle cx="138.8" cy="456.3999999999999" r="5"/><title>station 33 at (9.88, 39.52)</title><circle cx="237.60000000000002" cy="456.3999999999999" r="5"/><title>station 34 at (19.76, 39.52)</title><circle cx="336.4" cy="456.3999999999999" r="5"/><title>station 35 at (29.64, 39.52)</title><circle cx="435.20000000000005" cy="456.3999999999999" r="5"/><title>station 36 at (39.52, 39.52)</title><circle cx="534.0" cy="456.3999999999999" r="5"/><title>station 37 at (49.40, 39.52)</title><circle cx="632.8" cy="456.3999999999999" r="5"/><title>station 38 at (59.28, 39.52)</title><circle cx="731.5999999999999" cy="456.3999999999999" r="5"/><title>station 39 at (69.16, 39.52)</title><circle cx="40.0" cy="357.59999999999997" r="5"/><title>station 40 at (0.00, 49.40)</title><circle cx="138.8" cy="357.59999999999997" r="5"/><title>station 41 at (9.88, 49.40)</title><circle cx="237.60000000000002" cy="357.59999999999997" r="5"/><title>station 42 at (19.76, 49.40)</title><circle cx="336.4" cy="357.59999999999997" r="5"/><title>station 43 at (29.64, 49.40)</title><circle cx="435.20000000000005" cy="357.59999999999997" r="5"/><title>station 44 at (39.52, 49.40)</title><circle cx="534.0" cy="357.59999999999997" r="5"/><title>station 45 at (49.40, 49.40)</title><circle cx="632.8" cy="357.59999999999997" r="5"/><title>station 46 at (59.28, 49.40)</title><circle cx="731.5999999999999" cy="357.59999999999997" r="5"/><title>station 47 at (69.16, 49.40)</title><circle cx="40.0" cy="258.79999999999995" r="5"/><title>station 48 at (0.00, 59.28)</title><circle cx="138.8" cy="258.79999999999995" r="5"/><title>station 49 at (9.88, 59.28)</title><circle cx="237.60000000000002" cy="258.79999999999995" r="5"/><title>station 50 at (19.76, 59.28)</title><circle cx="336.4" cy="258.79999999999995" r="5"/><title>station 51 at (29.64, 59.28)</title><circle cx="435.20000000000005" cy="258.79999999999995" r="5"/><title>station 52 at (39.52, 59.28)</title><circle cx="534.0" cy="258.79999999999995" r="5"/><title>station 53 at (49.40, 59.28)</title><circle cx="632.8" cy="258.79999999999995" r="5"/><title>station 54 at (59.28, 59.28)</title><circle cx="731.5999999999999" cy="258.79999999999995" r="5"/><title>station 55 at (69.16, 59.28)</title><circle cx="40.0" cy="160.0" r="5"/><title>station 56 at (0.00, 69.16)</title><circle cx="138.8" cy="160.0" r="5"/><title>station 57 at (9.88, 69.16)</title><circle cx="237.60000000000002" cy="160.0" r="5"/><title>station 58 at (19.76, 69.16)</title><circle cx="336.4" cy="160.0" r="5"/><title>station 59 at (29.64, 69.16)</title><circle cx="435.20000000000005" cy="160.0" r="5"/><title>station 60 at (39.52, 69.16)</title><circle cx="534.0" cy="160.0" r="5"/><title>station 61 at (49.40, 69.16)</title><circle cx="632.8" cy="160.0" r="5"/><title>station 62 at (59.28, 69.16)</title></g><circle cx="731.5999999999999" cy="160.0" r="7" fill="#c25e3b" stroke="#202024" stroke-width="1.2"/><text x="741.5999999999999" y="164.0" font-family="Helvetica,Arial,sans-serif" font-size="10" fill="#202024">A1</text><circle cx="731.5999999999999" cy="120.0" r="7" fill="#3b86c2" stroke="#202024" stroke-width="1.2"/><text x="741.5999999999999" y="124.0" font-family="Helvetica,Arial,sans-serif" font-size="10" fill="#202024">A2</text><circle cx="731.5999999999999" cy="80.0" r="7" fill="#3b86c2" stroke="#202024" stroke-width="1.2"/><text x="741.5999999999999" y="84.0" font-family="Helvetica,Arial,sans-serif" font-size="10" fill="#202024">A3</text><circle cx="731.5999999999999" cy="40.0" r="7" fill="#3b86c2" stroke="#202024" stroke-width="1.2"/><text x="741.5999999999999" y="44.0" font-family="Helvetica,Arial,sans-serif" font-size="10" fill="#202024">A4</text><circle cx="691.5999999999999" cy="40.0" r="7" fill="#3b86c2" stroke="#202024" stroke-width="1.2"/><text x="701.5999999999999" y="44.0" font-family="Helvetica,Arial,sans-serif" font-size="10" fill="#202024">A5</text><circle cx="651.5999999999999" cy="40.0" r="7" fill="#3b86c2" stroke="#202024" stroke-width="1.2"/><text x="661.5999999999999" y="44.0" font-family="Helvetica,Arial,sans-serif" font-size="10" fill="#202024">A6</text><circle cx="611.5999999999999" cy="40.0" r="7" fill="#3b86c2" stroke="#202024" stroke-width="1.2"/><text x="621.5999999999999" y="44.0" font-family="Helvetica,Arial,sans-serif" font-size="10" fill="#202024">A7</text><circle cx="571.5999999999999" cy="40.0" r="7" fill="#3b86c2" stroke="#202024" stroke-width="1.2"/><text x="581.5999999999999" y="44.0" font-family="Helvetica,Arial,sans-serif" font-size="10" fill="#202024">A8</text><circle cx="531.5999999999999" cy="40.0" r="7" fill="#3b86c2" stroke="#202024" stroke-width="1.2"/><text x="541.5999999999999" y="44.0" font-family="Helvetica,Arial,sans-serif" font-size="10" fill="#202024">A9</text><circle cx="491.59999999999997" cy="40.0" r="7" fill="#3b86c2" stroke="#202024" stroke-width="1.2"/><text x="501.59999999999997" y="44.0" font-family="Helvetica,Arial,sans-serif" font-size="10" fill="#202024">A10</text><text x="24.0" y="863.5999999999999" font-family="Helvetica,Arial,sans-serif" font-size="9" fill="#605954">(0,0)</text><text x="735.5999999999999" y="863.5999999999999" font-family="Helvetica,Arial,sans-serif" font-size="9" fill="#605954">(69.16,0)</text><text x="24.0" y="34.0" font-family="Helvetica,Arial,sans-serif" font-size="9" fill="#605954">(0,81.16)</text><text x="735.5999999999999" y="34.0" font-family="Helvetica,Arial,sans-serif" font-size="9" fill="#605954">(69.16,81.16)</text></svg>